<?xml version="1.0" ?><!DOCTYPE svg  PUBLIC '-//W3C//DTD SVG 1.1//EN'  'http://www.w3.org/Graphics/SVG/1.1/DTD/svg11.dtd'><svg enable-background="new 0 0 512 512" height="512px" id="Layer_1" version="1.1" viewBox="0 0 512 512" width="512px" xml:space="preserve" xmlns="http://www.w3.org/2000/svg" xmlns:xlink="http://www.w3.org/1999/xlink"><g><circle cx="256" cy="256" fill="#FDF498" r="256"/><g><path d="M120.45,311.382c-10.88,10.88,2.225,38.218,16.057,65.506c27.289,13.832,54.626,26.937,65.506,16.057     c10.881-10.881-2.223-38.219-16.056-65.507C158.669,313.605,131.331,300.501,120.45,311.382z" fill="none"/><path d="M184.554,247.278c-10.881,10.881,2.224,38.219,16.054,65.509c27.29,13.831,54.628,26.935,65.509,16.054     s-2.222-38.22-16.054-65.509C222.774,249.501,195.435,236.397,184.554,247.278z" fill="none"/><path d="M248.659,183.173c-10.881,10.881,2.223,38.218,16.054,65.509c27.29,13.831,54.628,26.935,65.509,16.054     c10.883-10.883-2.221-38.221-16.052-65.511C286.88,185.395,259.542,172.29,248.659,183.173z" fill="none"/><path d="M312.768,119.064c-10.882,10.882,2.222,38.221,16.052,65.511c27.291,13.83,54.629,26.934,65.511,16.052     s-2.222-38.22-16.051-65.512C350.988,121.285,323.649,108.183,312.768,119.064z" fill="none"/><g><g><path d="M230.474,292.333c-1.642,1.642-4.613,1.334-6.634-0.687l-44.512-44.512       c-2.021-2.021-2.328-4.992-0.686-6.633c1.642-1.643,4.612-1.335,6.633,0.686l44.512,44.512       C231.808,287.72,232.115,290.691,230.474,292.333z" fill="#146190"/><path d="M278.575,340.435c-1.643,1.64-4.613,1.334-6.634-0.687l-49.147-49.147       c-2.021-2.021-2.328-4.992-0.686-6.633c1.642-1.643,4.612-1.335,6.633,0.686l49.147,49.147       C279.909,335.821,280.217,338.792,278.575,340.435z" fill="#CB2424"/></g><g><path d="M287.93,327.488c-1.642,1.642-4.612,1.335-6.634-0.687l-49.146-49.146       c-2.021-2.021-2.328-4.992-0.687-6.634s4.612-1.334,6.634,0.687l49.146,49.146C289.264,322.876,289.571,325.847,287.93,327.488       z" fill="#AA0000"/><path d="M239.828,279.388c-1.642,1.641-4.612,1.334-6.633-0.687l-44.511-44.512       c-2.022-2.021-2.328-4.992-0.688-6.634c1.642-1.642,4.612-1.334,6.634,0.687l44.511,44.512       C241.162,274.775,241.47,277.745,239.828,279.388z" fill="#63ACE5"/></g><g><path d="M265.629,349.789c-1.642,1.642-4.612,1.334-6.634-0.687l-49.146-49.146       c-2.021-2.021-2.328-4.992-0.687-6.634c1.643-1.643,4.612-1.335,6.634,0.687l49.146,49.146       C266.964,345.177,267.271,348.146,265.629,349.789z" fill="#EE4035"/><path d="M217.528,301.688c-1.643,1.642-4.612,1.334-6.634-0.687l-44.512-44.511       c-2.021-2.021-2.328-4.992-0.687-6.634c1.644-1.643,4.612-1.335,6.635,0.687l44.511,44.512       C218.862,297.075,219.171,300.046,217.528,301.688z" fill="#083349"/></g></g><g><g><path d="M355.414,161.711c-1.643,1.641-4.611,1.336-6.634-0.687l-44.511-44.511       c-2.022-2.022-2.328-4.992-0.687-6.635s4.611-1.335,6.634,0.688l44.511,44.511C356.75,157.1,357.056,160.068,355.414,161.711z" fill="#146190"/><path d="M403.516,209.812c-1.643,1.642-4.613,1.335-6.635-0.687l-49.146-49.146       c-2.021-2.021-2.327-4.99-0.687-6.634c1.643-1.642,4.612-1.335,6.634,0.687l49.146,49.146       C404.85,205.199,405.158,208.169,403.516,209.812z" fill="#CB2424"/></g><g><path d="M412.871,196.865c-1.643,1.643-4.612,1.336-6.633-0.686l-49.148-49.147       c-2.021-2.021-2.327-4.991-0.685-6.634c1.642-1.641,4.61-1.334,6.631,0.687l49.147,49.147       C414.205,192.253,414.514,195.225,412.871,196.865z" fill="#AA0000"/><path d="M364.769,148.765c-1.642,1.642-4.612,1.333-6.633-0.687l-44.511-44.511       c-2.021-2.022-2.328-4.991-0.686-6.634c1.642-1.642,4.611-1.335,6.632,0.687l44.511,44.511       C366.103,144.151,366.411,147.122,364.769,148.765z" fill="#63ACE5"/></g><g><path d="M390.571,219.166c-1.643,1.643-4.613,1.336-6.634-0.686l-49.148-49.146       c-2.021-2.022-2.327-4.992-0.685-6.635c1.642-1.641,4.61-1.334,6.631,0.687l49.147,49.147       C391.903,214.555,392.213,217.524,390.571,219.166z" fill="#FE2E2E"/><path d="M342.468,171.065c-1.641,1.641-4.612,1.333-6.633-0.687l-44.511-44.511       c-2.021-2.022-2.328-4.991-0.686-6.634c1.642-1.642,4.61-1.334,6.632,0.686l44.511,44.512       C343.802,166.452,344.11,169.423,342.468,171.065z" fill="#083349"/></g></g><g><g><path d="M292.866,228.144c-1.643,1.643-4.611,1.335-6.634-0.687l-44.511-44.512       c-2.021-2.02-2.328-4.99-0.687-6.633c1.643-1.642,4.612-1.334,6.634,0.688l44.511,44.51       C294.201,223.531,294.509,226.501,292.866,228.144z" fill="#CB2424"/><path d="M340.967,276.244c-1.642,1.643-4.611,1.336-6.632-0.686l-49.148-49.146       c-2.021-2.021-2.328-4.992-0.687-6.635c1.644-1.642,4.612-1.333,6.635,0.688l49.146,49.147       C342.303,271.633,342.609,274.603,340.967,276.244z" fill="#146190"/></g><g><path d="M350.323,263.299c-1.642,1.643-4.611,1.335-6.633-0.686l-49.146-49.148       c-2.022-2.021-2.329-4.99-0.687-6.631c1.641-1.643,4.612-1.336,6.633,0.686l49.147,49.147       C351.658,258.688,351.965,261.658,350.323,263.299z" fill="#083349"/><path d="M302.221,215.197c-1.641,1.643-4.61,1.336-6.631-0.686L251.078,170       c-2.021-2.021-2.329-4.99-0.687-6.632c1.641-1.643,4.612-1.335,6.633,0.686l44.512,44.511       C303.557,210.586,303.864,213.557,302.221,215.197z" fill="#EE4035"/></g><g><path d="M328.022,285.6c-1.642,1.643-4.611,1.335-6.633-0.686l-49.146-49.148       c-2.022-2.02-2.329-4.989-0.687-6.631c1.641-1.643,4.612-1.336,6.633,0.686l49.147,49.147       C329.357,280.988,329.664,283.959,328.022,285.6z" fill="#63ACE5"/><path d="M279.92,237.498c-1.641,1.643-4.61,1.336-6.631-0.686l-44.512-44.512       c-2.021-2.021-2.329-4.99-0.687-6.632c1.641-1.643,4.612-1.335,6.633,0.686l44.512,44.511       C281.256,232.887,281.563,235.857,279.92,237.498z" fill="#AA0000"/></g></g><g><g><path d="M167.733,358.662c-1.643,1.643-4.612,1.336-6.634-0.686l-44.512-44.512       c-2.021-2.021-2.327-4.991-0.686-6.633s4.611-1.334,6.633,0.687l44.512,44.511C169.068,354.051,169.376,357.02,167.733,358.662       z" fill="#CB2424"/><path d="M215.836,406.766c-1.643,1.642-4.614,1.333-6.634-0.687l-49.148-49.149       c-2.021-2.02-2.327-4.99-0.686-6.633c1.642-1.641,4.611-1.334,6.633,0.688l49.147,49.147       C217.169,402.152,217.478,405.123,215.836,406.766z" fill="#146190"/></g><g><path d="M225.189,393.819c-1.642,1.64-4.612,1.334-6.633-0.687l-49.147-49.147       c-2.021-2.021-2.328-4.992-0.687-6.633c1.642-1.643,4.612-1.335,6.633,0.687l49.147,49.146       C226.523,389.207,226.831,392.177,225.189,393.819z" fill="#083349"/><path d="M177.088,345.719c-1.641,1.641-4.612,1.333-6.633-0.688l-44.512-44.512       c-2.021-2.021-2.328-4.992-0.687-6.633c1.642-1.643,4.612-1.335,6.633,0.687l44.512,44.511       C178.423,341.105,178.73,344.076,177.088,345.719z" fill="#EE4035"/></g><g><path d="M202.89,416.119c-1.643,1.642-4.612,1.334-6.634-0.687l-49.146-49.147       c-2.021-2.021-2.329-4.991-0.687-6.633c1.641-1.642,4.611-1.334,6.632,0.688l49.147,49.146       C204.223,411.508,204.53,414.478,202.89,416.119z" fill="#63ACE5"/><path d="M154.789,368.018c-1.643,1.643-4.613,1.335-6.634-0.688l-44.512-44.511       c-2.021-2.021-2.329-4.991-0.687-6.633c1.641-1.642,4.611-1.334,6.632,0.688l44.512,44.511       C156.122,363.406,156.43,366.377,154.789,368.018z" fill="#AA0000"/></g></g><path d="M392.929,120.466c-1.38-0.699-2.758-1.398-4.135-2.099c-8.285-4.21-16.632-8.447-24.829-12.215     c-26.89-12.365-52.123-19.625-67.929-3.819c-15.805,15.805-8.545,41.037,3.818,67.926c8.199,3.771,16.546,8.007,24.83,12.217     c1.377,0.7,2.755,1.399,4.135,2.1c-13.83-27.29-26.934-54.629-16.052-65.511s38.221,2.221,65.512,16.051     c1.38,0.7,2.759,1.399,4.135,2.1c8.285,4.209,16.632,8.446,24.83,12.217c26.888,12.362,52.122,19.623,67.927,3.816l-16.731-16.73     C447.558,147.399,420.22,134.296,392.929,120.466z" fill="#083349"/><path d="M190.089,329.534c-1.375-0.698-2.753-1.398-4.132-2.097c13.833,27.288,26.937,54.626,16.056,65.507     c-10.88,10.88-38.217-2.225-65.506-16.057c-1.378-0.7-2.756-1.398-4.131-2.097c-8.288-4.213-16.638-8.451-24.836-12.22     c-26.889-12.363-52.119-19.623-67.922-3.82l16.731,16.731c10.88-10.88,38.218,2.225,65.508,16.055     c1.38,0.699,2.759,1.399,4.136,2.098c8.285,4.212,16.634,8.451,24.831,12.219c26.888,12.365,52.118,19.626,67.921,3.823     c15.803-15.804,8.541-41.035-3.82-67.925C206.725,337.982,198.375,333.744,190.089,329.534z" fill="#083349"/><path d="M318.303,201.322c-1.376-0.698-2.754-1.398-4.133-2.098c13.831,27.29,26.935,54.628,16.052,65.511     c-10.881,10.881-38.219-2.223-65.509-16.054c-1.379-0.699-2.757-1.398-4.133-2.098c-8.287-4.211-16.636-8.449-24.833-12.218     c-26.888-12.364-52.121-19.623-67.924-3.82c-15.805,15.805-8.544,41.038,3.818,67.925c8.197,3.77,16.546,8.008,24.831,12.218     c1.375,0.698,2.756,1.399,4.135,2.099c-13.83-27.29-26.935-54.628-16.054-65.509s38.221,2.223,65.509,16.054     c1.378,0.698,2.758,1.398,4.135,2.098c8.286,4.211,16.634,8.448,24.832,12.219c26.889,12.361,52.122,19.622,67.925,3.818     c15.805-15.804,8.544-41.037-3.817-67.926C334.937,209.771,326.59,205.533,318.303,201.322z" fill="#083349"/><path d="M121.857,391.537c13.831,27.29,26.935,54.628,16.055,65.508l16.731,16.73     c15.803-15.803,8.544-41.033-3.819-67.922c-8.197-3.768-16.546-8.007-24.831-12.219     C124.616,392.937,123.237,392.236,121.857,391.537z" fill="#EE4035"/><path d="M376.877,54.955l-16.731-16.731c-15.805,15.805-8.545,41.038,3.819,67.929     c8.197,3.768,16.544,8.005,24.829,12.215c1.377,0.7,2.755,1.399,4.135,2.099C379.099,93.174,365.995,65.837,376.877,54.955z" fill="#EE4035"/><path d="M254.197,265.43c-1.377-0.699-2.757-1.399-4.135-2.098c13.832,27.289,26.935,54.628,16.054,65.509     s-38.219-2.223-65.509-16.054c-1.379-0.699-2.76-1.4-4.135-2.099c-8.285-4.21-16.634-8.448-24.831-12.218     c-26.888-12.361-52.119-19.624-67.923-3.82c-15.803,15.803-8.542,41.033,3.821,67.921c8.198,3.769,16.548,8.007,24.836,12.22     c1.375,0.698,2.753,1.396,4.131,2.097c-13.832-27.288-26.937-54.626-16.057-65.506c10.881-10.881,38.219,2.224,65.507,16.056     c1.379,0.698,2.757,1.398,4.132,2.097c8.286,4.21,16.636,8.448,24.836,12.218c26.887,12.364,52.12,19.623,67.924,3.82     c15.803-15.805,8.544-41.037-3.819-67.924C270.831,273.878,262.483,269.641,254.197,265.43z" fill="#EE4035"/><path d="M382.414,137.215c-1.376-0.7-2.755-1.399-4.135-2.1c13.829,27.292,26.933,54.63,16.051,65.512     s-38.22-2.222-65.511-16.052c-1.38-0.7-2.758-1.399-4.135-2.1c-8.284-4.21-16.631-8.445-24.83-12.217     c-26.889-12.362-52.122-19.622-67.926-3.818s-8.544,41.036,3.818,67.926c8.197,3.769,16.546,8.007,24.833,12.218     c1.376,0.699,2.754,1.398,4.133,2.098c-13.831-27.291-26.935-54.628-16.054-65.509c10.883-10.883,38.221,2.222,65.511,16.052     c1.379,0.699,2.757,1.399,4.133,2.098c8.287,4.211,16.634,8.448,24.834,12.219c26.887,12.363,52.121,19.622,67.924,3.816     c15.808-15.804,8.546-41.038-3.816-67.926C399.046,145.661,390.699,141.424,382.414,137.215z" fill="#EE4035"/></g></g></svg>