<?xml version="1.0" ?><!DOCTYPE svg  PUBLIC '-//W3C//DTD SVG 1.1//EN'  'http://www.w3.org/Graphics/SVG/1.1/DTD/svg11.dtd'><svg enable-background="new 0 0 256 256" id="Layer_1" version="1.1" viewBox="0 0 256 256" xml:space="preserve" xmlns="http://www.w3.org/2000/svg" xmlns:xlink="http://www.w3.org/1999/xlink"><g><circle cx="128" cy="128" fill="#E37D39" r="127"/><g><rect fill="#BCBFC2" height="7.6" transform="matrix(0.5632 0.8263 -0.8263 0.5632 181.1583 -68.2284)" width="37.9" x="136.2" y="133.4"/><rect fill="#BCBFC2" height="38.4" transform="matrix(0.8264 0.5631 -0.5631 0.8264 93.888 -33.1172)" width="7.7" x="96.8" y="116.5"/><path d="M102.1,170.6c0,13.2-10.1,23.9-22.6,23.9c-12.5,0-22.6-10.7-22.6-23.9c0-13.2,10.1-23.9,22.6-23.9    C92,146.7,102.1,157.4,102.1,170.6z" fill="#BF4028"/><path d="M199.1,170.6c0,13.2-10.1,23.9-22.6,23.9c-12.5,0-22.6-10.7-22.6-23.9c0-13.2,10.1-23.9,22.6-23.9    C189,146.7,199.1,157.4,199.1,170.6z" fill="#1F84AB"/><path d="M162.5,90c0,20.1-15.4,36.5-34.5,36.5c-19.1,0-34.5-16.3-34.5-36.5c0-20.1,15.4-36.5,34.5-36.5    C147.1,53.6,162.5,69.9,162.5,90z" fill="#F0C949"/><path d="M137.4,89.8c0,7.5-4.3,11.5-9.6,11.5c-5.4,0-9.3-4.5-9.3-11c0-6.9,4.1-11.4,9.6-11.4    C133.8,78.8,137.4,83.3,137.4,89.8z M121.4,90.2c0,4.6,2.4,8.8,6.6,8.8c4.2,0,6.6-4.1,6.6-9c0-4.3-2.1-8.8-6.6-8.8    C123.6,81.1,121.4,85.4,121.4,90.2z" fill="#FFFFFF"/><path d="M74.5,159.7v9.1h10v-9.1h2.7v21.8h-2.7v-10.2h-10v10.2h-2.7v-21.8H74.5z" fill="#FFFFFF"/><path d="M171.5,159.7v9.1h10v-9.1h2.7v21.8h-2.7v-10.2h-10v10.2h-2.7v-21.8H171.5z" fill="#FFFFFF"/><path d="M74.4,121.1v7.6h6.9v1.9h-6.9v7.6h-2v-7.6h-6.9v-1.9h6.9v-7.6H74.4z" fill="#F7F8F9"/><path d="M138.1,156.5v7.6h6.9v1.9h-6.9v7.6h-2V166h-6.9v-1.9h6.9v-7.6H138.1z" fill="#F7F8F9"/><path d="M180.2,110.7v3.4H168v-3.4H180.2z" fill="#F7F8F9"/></g></g></svg>