<?xml version="1.0" ?><!DOCTYPE svg  PUBLIC '-//W3C//DTD SVG 1.1//EN'  'http://www.w3.org/Graphics/SVG/1.1/DTD/svg11.dtd'><svg enable-background="new 0 0 128 128" id="Layer_1" version="1.1" viewBox="0 0 128 128" xml:space="preserve" xmlns="http://www.w3.org/2000/svg" xmlns:xlink="http://www.w3.org/1999/xlink"><g><circle cx="64" cy="64" fill="#41B655" r="63"/><g><path d="M77.9,57.7H50.1c-2.3,0-4.1-1.8-4.1-4.1V25.8c0-2.3,1.8-4.1,4.1-4.1h27.9c2.3,0,4.1,1.8,4.1,4.1v27.8    C82,55.8,80.2,57.7,77.9,57.7z" fill="#D62E2F"/><path d="M56.6,100.4H28.7c-2.3,0-4.1-1.8-4.1-4.1V68.5c0-2.3,1.8-4.1,4.1-4.1h27.9c2.3,0,4.1,1.8,4.1,4.1v27.8    C60.7,98.6,58.8,100.4,56.6,100.4z" fill="#E3E6E8"/><path d="M99.3,100.4H71.4c-2.3,0-4.1-1.8-4.1-4.1V68.5c0-2.3,1.8-4.1,4.1-4.1h27.9c2.3,0,4.1,1.8,4.1,4.1v27.8    C103.4,98.6,101.5,100.4,99.3,100.4z" fill="#FFC717"/><path d="M71.7,52.5l-2.4-5.5H58.6l-2.4,5.5h-6.1l11-25.6h5.5l11,25.6H71.7z M64,34.5l-3.2,7.4h6.4L64,34.5z" fill="#E3E6E8"/><path d="M43.6,95.2H32.4V69.6h9.9c1.7,0,3.2,0.2,4.5,0.6c1.3,0.4,2.2,1,2.8,1.7c1.1,1.3,1.7,2.8,1.7,4.5    c0,2-0.6,3.5-1.9,4.5c-0.4,0.3-0.7,0.6-0.9,0.6c-0.2,0.1-0.5,0.2-0.9,0.4c1.6,0.3,2.8,1.1,3.8,2.1c0.9,1.1,1.4,2.4,1.4,4    c0,1.8-0.6,3.4-1.8,4.7C49.6,94.4,47.2,95.2,43.6,95.2z M38.2,80h2.7c1.6,0,2.8-0.2,3.5-0.5c0.8-0.3,1.2-1.1,1.2-2.2    c0-1.1-0.4-1.9-1.1-2.2c-0.7-0.4-1.9-0.5-3.6-0.5h-2.7V80z M38.2,90.4h3.9c1.6,0,2.9-0.2,3.7-0.6c0.8-0.4,1.2-1.2,1.2-2.4    c0-1.2-0.4-2-1.3-2.3c-0.9-0.4-2.2-0.6-4.2-0.6h-3.4V90.4z" fill="#5D5E61"/><path d="M86.6,90.3c2.8,0,5.1-1.1,6.9-3.3l3.7,3.8c-2.9,3.3-6.3,4.9-10.3,4.9c-3.9,0-7.2-1.2-9.7-3.7    c-2.5-2.5-3.8-5.6-3.8-9.4c0-3.8,1.3-7,3.9-9.5c2.6-2.5,5.8-3.8,9.5-3.8c4.2,0,7.7,1.6,10.5,4.8l-3.5,4c-1.8-2.2-4-3.4-6.7-3.4    c-2.1,0-4,0.7-5.5,2.1c-1.5,1.4-2.3,3.3-2.3,5.7c0,2.4,0.7,4.3,2.2,5.7C82.9,89.6,84.6,90.3,86.6,90.3z" fill="#D62E2F"/></g></g></svg>