<?xml version="1.0" ?><!DOCTYPE svg  PUBLIC '-//W3C//DTD SVG 1.1//EN'  'http://www.w3.org/Graphics/SVG/1.1/DTD/svg11.dtd'><svg enable-background="new 0 0 512 512" id="Laag_1" version="1.1" viewBox="0 0 512 512" xml:space="preserve" xmlns="http://www.w3.org/2000/svg" xmlns:xlink="http://www.w3.org/1999/xlink"><circle cx="259" cy="257" fill="#FEC700" r="217.5"/><g><g id="XMLID_3_"><g><path d="M314.5,174.8c21.9,2.1,43.5,9.2,57.9,25.9l0.1,0.3c3.5,15.1,5.4,29.5,6.1,43.5     c0.6,12.6,0.1,24.9-1.4,37.2c-1,8.7-2.6,17.5-4.6,26.3c-0.1,0.8-1.1,1.1-1.6,0.5c-14.4-15.6-36.4-22.3-57.6-24.4     c-21.9-2.1-44.1-0.1-66-2.5c-17.2-1.9-34-6.5-49.7-13.6v-33.2v-76.1c15.7,7.1,32.6,11.7,49.7,13.6     C269.3,174.7,292.6,172.7,314.5,174.8z" fill="#FFFFFF"/></g><g><path d="M197.7,234.8V268c15.7,7.1,32.5,11.7,49.7,13.6     c21.9,2.4,44.1,0.4,66,2.5c21.2,2.1,43.2,8.8,57.6,24.4c0.5,0.6,1.5,0.3,1.6-0.5c2-8.8,3.6-17.6,4.6-26.3     c1.5-12.3,2-24.6,1.4-37.2c-0.7-14-2.6-28.4-6.1-43.5l-0.1-0.3c-14.4-16.7-36-23.8-57.9-25.9c-21.9-2.1-45.2-0.1-67.1-2.5     c-17.1-1.9-34-6.5-49.7-13.6V234.8" fill="none" stroke="#000000" stroke-miterlimit="10" stroke-width="4"/></g></g></g><g><g><path d="M200.3,424.4c0,4-3.4,7.2-7.7,7.2l0,0c-4.2,0-7.7-3.2-7.7-7.2V145c0-4,3.4-7.2,7.7-7.2l0,0    c4.2,0,7.7,3.2,7.7,7.2V424.4z" fill="#575756"/><ellipse cx="192.7" cy="127" fill="#575756" rx="20.9" ry="19.6"/></g></g><path d="M319.5,230.8c-0.6,17.5-15.3,31.8-32.9,31.8s-31.3-14.2-30.6-31.8c0.7-17.6,15.3-31.8,32.9-31.8  S320.1,213.2,319.5,230.8z" fill="#D41123"/></svg>