<?xml version="1.0" ?><!DOCTYPE svg  PUBLIC '-//W3C//DTD SVG 1.1//EN'  'http://www.w3.org/Graphics/SVG/1.1/DTD/svg11.dtd'><svg enable-background="new 0 0 512 512" height="512px" version="1.1" viewBox="0 0 512 512" width="512px" xml:space="preserve" xmlns="http://www.w3.org/2000/svg" xmlns:xlink="http://www.w3.org/1999/xlink"><g id="Layer_1"><rect fill="#27AE60" height="70.496" width="80.996" x="-559.869" y="19.103"/><rect fill="#2ECC71" height="70.496" width="80.996" x="-462.374" y="19.103"/><rect fill="#16A085" height="70.496" width="80.996" x="-559.869" y="99.605"/><rect fill="#1ABC9C" height="70.496" width="80.996" x="-462.374" y="99.605"/><rect fill="#2980B9" height="70.496" width="80.996" x="-559.869" y="180.605"/><rect fill="#3498DB" height="70.496" width="80.996" x="-462.374" y="180.605"/><rect fill="#8E44AD" height="70.496" width="80.996" x="-559.869" y="261.605"/><rect fill="#9B59B6" height="70.496" width="80.996" x="-462.374" y="261.605"/><rect fill="#2C3E50" height="70.496" width="80.996" x="-559.869" y="342.605"/><rect fill="#34495E" height="70.496" width="80.996" x="-462.374" y="342.605"/><rect fill="#F39C12" height="70.496" width="80.996" x="-319.88" y="20.027"/><rect fill="#F1C40F" height="70.496" width="80.996" x="-222.385" y="20.027"/><rect fill="#D35400" height="70.496" width="80.996" x="-319.88" y="100.53"/><rect fill="#E67E22" height="70.496" width="80.996" x="-222.385" y="100.53"/><rect fill="#C0392B" height="70.496" width="80.996" x="-319.88" y="181.53"/><rect fill="#E74C3C" height="70.496" width="80.996" x="-222.385" y="181.53"/><rect fill="#BDC3C7" height="70.496" width="80.996" x="-319.88" y="262.529"/><rect fill="#ECF0F1" height="70.496" width="80.996" x="-222.385" y="262.529"/><rect fill="#7F8C8D" height="70.496" width="80.996" x="-319.88" y="343.529"/><rect fill="#95A5A6" height="70.496" width="80.996" x="-222.385" y="343.529"/></g><g id="Layer_19"><path d="M506,256c0,138.076-111.923,250-250,250c-120.645,0-221.329-85.453-244.823-199.139   C7.783,290.439,6,273.428,6,256C6,117.926,117.927,6,256,6C394.077,6,506,117.926,506,256z" fill="#34495E"/><path d="M256,444.5c-1.381,0-2.5-1.119-2.5-2.5V70c0-1.381,1.119-2.5,2.5-2.5s2.5,1.119,2.5,2.5v372   C258.5,443.381,257.381,444.5,256,444.5z" fill="#FFFFFF"/><path d="M442,258.5H70c-1.381,0-2.5-1.119-2.5-2.5s1.119-2.5,2.5-2.5h372c1.381,0,2.5,1.119,2.5,2.5   S443.381,258.5,442,258.5z" fill="#FFFFFF"/><path d="M404.169,168.566h-97.382c-3.845,0-6.961-3.117-6.961-6.961s3.116-6.961,6.961-6.961h97.382   c3.845,0,6.961,3.117,6.961,6.961S408.014,168.566,404.169,168.566z" fill="#F1C40F"/><path d="M210.003,154.645h-41.73v-41.73c0-3.844-3.117-6.961-6.961-6.961s-6.961,3.117-6.961,6.961v41.73h-41.73   c-3.844,0-6.961,3.117-6.961,6.961s3.117,6.961,6.961,6.961h41.73v41.73c0,3.844,3.117,6.961,6.961,6.961s6.961-3.117,6.961-6.961   v-41.73h41.73c3.844,0,6.961-3.117,6.961-6.961S213.848,154.645,210.003,154.645z" fill="#2ECC71"/><path d="M200.664,383.618l-29.508-29.508l29.507-29.508c2.719-2.718,2.719-7.126,0-9.844   c-2.718-2.719-7.126-2.719-9.844,0l-29.507,29.508l-29.508-29.508c-2.718-2.719-7.126-2.719-9.844,0   c-2.719,2.718-2.719,7.126,0,9.844l29.508,29.508l-29.507,29.508c-2.719,2.718-2.719,7.126,0,9.844   c1.359,1.359,3.141,2.039,4.922,2.039s3.563-0.68,4.922-2.039l29.507-29.508l29.508,29.508c1.359,1.359,3.141,2.039,4.922,2.039   s3.563-0.68,4.922-2.039C203.383,390.744,203.383,386.336,200.664,383.618z" fill="#3498DB"/><g><path d="M404.169,347.149h-97.382c-3.845,0-6.961,3.116-6.961,6.961s3.116,6.961,6.961,6.961h97.382    c3.845,0,6.961-3.116,6.961-6.961S408.014,347.149,404.169,347.149z" fill="#C276E5"/><circle cx="355.478" cy="324.614" fill="#C276E5" r="11.753"/><circle cx="355.478" cy="383.606" fill="#C276E5" r="11.753"/></g></g></svg>