<?xml version="1.0" ?><!DOCTYPE svg  PUBLIC '-//W3C//DTD SVG 1.1//EN'  'http://www.w3.org/Graphics/SVG/1.1/DTD/svg11.dtd'><svg enable-background="new 0 0 256 256" id="Layer_1" version="1.1" viewBox="0 0 256 256" xml:space="preserve" xmlns="http://www.w3.org/2000/svg" xmlns:xlink="http://www.w3.org/1999/xlink"><g><circle cx="128" cy="128" fill="#6DB8E0" r="127"/><g><path d="M93.2,175.1l-20,22.5H59.8l65.3-71.4h5.5l65.5,71.4h-14.3l-20.5-22.5H93.2z M156.2,167.9l-18.8-20.5    c-4.3-4.7-7.1-8.9-10-13h-0.6c-2.9,4.2-6,8.6-9.7,12.9l-18.8,20.7H156.2z" fill="#BF4028"/></g><rect fill="#2E4555" height="97.9" width="141.9" x="57.1" y="58.5"/><rect fill="#E37D39" height="89.2" width="133.1" x="61.5" y="62.9"/><rect fill="#0B2C48" height="5.4" width="156.8" x="49.6" y="156.4"/><g><path d="M96.9,97v3.5H85.1v5.9h10.7v3.3H85.1v5.9h12.2v3.5h-16V97H96.9z" fill="#E7E8E9"/><path d="M101.3,111.4v-3.3h10.6v3.3H101.3z" fill="#E7E8E9"/><path d="M120.3,110.1v9.2h-3.6v-16.9h3.6v3.1c0.5-1,1.3-1.9,2.3-2.4c1-0.6,2.1-0.9,3.3-0.9c2.7,0,4.5,1.1,5.4,3.3    c1.7-2.2,3.8-3.3,6.3-3.3c1.9,0,3.5,0.6,4.6,1.7c1.2,1.2,1.8,2.9,1.8,5.1v10.4h-3.6V110c0-3.1-1.3-4.7-3.9-4.7    c-1.2,0-2.3,0.4-3.2,1.2c-0.9,0.8-1.4,1.9-1.4,3.4v9.4h-3.6V110c0-1.6-0.3-2.8-0.9-3.5c-0.6-0.8-1.5-1.1-2.7-1.1    c-1.2,0-2.3,0.4-3.2,1.2S120.3,108.5,120.3,110.1z" fill="#E7E8E9"/><path d="M156.5,119.5c-2.4,0-4.4-0.8-6.1-2.4c-1.7-1.6-2.5-3.7-2.5-6.3s0.9-4.7,2.7-6.3s3.9-2.4,6.5-2.4    c2.5,0,4.7,0.9,6.5,2.6l-2.1,2.6c-1.5-1.3-2.9-1.9-4.4-1.9c-1.5,0-2.8,0.5-3.9,1.5c-1.1,1-1.6,2.3-1.6,3.8c0,1.6,0.5,2.9,1.6,4    c1.1,1.1,2.4,1.6,4,1.6s3.1-0.7,4.5-2.2l2.1,2.3C161.6,118.5,159.2,119.5,156.5,119.5z" fill="#E7E8E9"/><path d="M171.6,100.8c0.4-0.5,0.6-1,0.6-1.5c0-0.5-0.2-1-0.6-1.3c-0.4-0.4-0.9-0.5-1.5-0.5c-1.1,0-1.9,0.5-2.7,1.6    l-1.8-1c0.6-0.9,1.2-1.5,1.9-1.9s1.6-0.6,2.7-0.6c1.1,0,2,0.3,2.8,1c0.8,0.7,1.2,1.6,1.2,2.8c0,0.7-0.2,1.3-0.5,1.9    c-0.3,0.6-1,1.4-1.9,2.3l-3,3.1h5.9v2.1h-8.9v-1.9l3.9-3.9C170.6,102,171.2,101.3,171.6,100.8z" fill="#E7E8E9"/></g></g></svg>