<?xml version="1.0" ?><!DOCTYPE svg  PUBLIC '-//W3C//DTD SVG 1.1//EN'  'http://www.w3.org/Graphics/SVG/1.1/DTD/svg11.dtd'><svg enable-background="new 0 0 512 512" height="512px" version="1.1" viewBox="0 0 512 512" width="512px" xml:space="preserve" xmlns="http://www.w3.org/2000/svg" xmlns:xlink="http://www.w3.org/1999/xlink"><g id="circle"><g><path clip-rule="evenodd" d="M256,512c141.098,0,256-114.894,256-256    C512,115.099,397.098,0,256,0C115.097,0,0,115.099,0,256C0,397.106,115.097,512,256,512L256,512z" fill="#36495C" fill-rule="evenodd"/></g></g><g id="globe"><g><path d="M262.048,391.665l-90.101,15.32c-3.43,0.604-6.453,2.81-6.453,6.446v6.653    c0,3.624,2.823,6.654,6.453,6.654h199.957c3.637,0,6.654-3.03,6.654-6.654v-6.653c0-3.638-3.019-5.842-6.654-6.446l-90.101-15.32    v-14.313c29.634-2.025,57.656-12.701,80.828-30.046c2.219-2.012,2.024-3.623,0.414-6.447l-4.243-7.246    c-2.411-4.243-3.019-4.644-7.854-1.213l-4.643,3.417l0,0c-5.441,3.431-10.884,6.654-16.532,9.479l0,0    c-62.284,30.238-138.276,7.658-173.553-53.218c-35.076-60.874-16.732-138.075,40.717-176.978v0.2    c5.242-3.628,10.685-6.854,16.532-9.675l0,0l5.242-2.418c5.44-2.218,5.44-3.023,3.023-7.256l-4.235-7.257    c-1.612-2.824-3.024-4.033-6.048-3.023c-41.323,17.736-74.382,53.616-86.876,100.384    c-21.774,81.24,26.402,164.683,107.638,186.463c9.878,2.617,19.956,4.229,29.833,4.836L262.048,391.665L262.048,391.665z" fill="#ECEFF0"/><path d="M307.002,109.858c63.702,19.352,99.784,86.68,80.429,150.37c-19.356,63.908-86.685,99.986-150.374,80.632    c-63.704-19.342-99.785-86.676-80.429-150.37C175.778,126.589,243.105,90.709,307.002,109.858L307.002,109.858z" fill="#2C80B9"/><path d="M272.932,120.138c3.224,5.645,13.31,4.636,14.521,11.086c1.006,4.839,6.048,14.109,13.707,13.305    c3.83-0.403-3.03-6.65,0-13.305c2.411-5.242-4.643-11.689-9.685-13.305c-3.83-1.208-7.054-2.015-11.077-1.407    C277.974,116.915,271.72,117.92,272.932,120.138L272.932,120.138z M392.665,225.36c0-24.391-7.246-47.169-19.948-66.318    c-1.612,0-3.432-0.401-5.249,1.815c-2.812,3.627-1.405,7.257-3.623,11.29c-2.411,4.433,2.012,9.271,2.012,14.311    c0.206,5.241-3.417,13.503-0.593,17.74c2.204,3.024,3.623,5.039,3.224,9.877c-0.605,5.442,9.878,21.771,14.301,17.13    c3.03-3.426,6.653-5.641,9.878-5.238C392.665,225.763,392.665,225.563,392.665,225.36L392.665,225.36z M361.021,153.6    c1.818-2.016,4.036-2.219,6.654-1.815c-6.654-8.668-14.507-16.328-23.188-22.779c0.606,3.83,0.606,7.46,0.413,9.475    c-0.413,3.63,0,7.057,2.218,10.281c1.405,2.218,6.849,5.039,7.66,7.46c0.399,2.218-4.643,2.015-3.431,4.028    c1.818,2.621,7.054,11.692,8.873,10.483C363.239,168.517,357.797,157.43,361.021,153.6L361.021,153.6z M209.641,130.219    c-4.236,7.257,0.399,16.728-1.412,24.793c-2.018,9.471-10.276,15.722-9.878,25.599c0.807,13.907,9.272,26.809,13.908,41.525    c2.018,6.45,12.296,5.238,17.944,8.664c4.229,2.219,8.059,5.042,11.489,8.066c3.631,3.223,5.842,7.456,9.671,10.28    c3.23,2.617,9.072,1.61,9.886,5.841c1.006,5.445-6.455,9.882-6.048,15.529c0.599,8.266,3.224,14.313,9.063,20.554    c3.019,3.224,10.085,5.842,11.697,9.878c2.218,6.048-1.419,13.308-3.031,22.786c-0.398,3.224-5.235,12.287-3.623,15.318    c1.212,2.218,5.042,0.799,7.054-0.606c3.623-2.218,5.441-4.835,8.872-7.26c3.83-2.618,8.459-3.225,12.289-5.841    c7.659-5.042,12.702-13.103,19.962-18.557c4.229-2.811,10.071-4.423,13.502-8.06c3.83-4.229,4.036-8.666,6.654-13.9    c2.617-5.455,5.841-15.525,0.206-17.744c-6.461-2.424-11.489-0.604-17.345-4.035c-3.417-2.012-5.042-6.443-8.268-8.662    c-3.224-2.223-7.246-1.615-11.076-3.027c-4.035-1.408-5.44-7.256-12.701-6.451c-5.648,0.606-10.484-3.626-15.721-2.618    c-3.637,0.604-9.284,5.239-12.907,5.846c-2.013,0.199-4.229-0.403-5.842-1.612c-5.042-3.63-2.625-8.668-5.042-11.086    c-2.617-2.621-7.659,0.402-9.071-3.024c-1.813-4.235,6.254-9.273,3.023-12.299c-3.023-2.82-7.253,6.048-12.296,5.646    c-1.812-0.2-3.83-0.604-5.242-3.626c-2.011-5.042-2.418-15.322,3.024-20.361c4.843-4.635,14.114-1.005,20.163,1.814    c3.83,1.612,5.242,10.077,7.253,8.668c2.218-1.814-1.006-8.668,1.412-13.104c0,0,7.054-5.039,8.873-12.698    c1.61-8.063,14.106-10.078,17.537-19.148c1.611-4.437,10.678-4.233,9.064-8.868c-1.611-3.83-8.06-6.048-11.89-10.484    c-1.419-1.611-3.829,1.208-5.648,0c-2.218-1.209-5.647-7.858-7.453-5.845c-3.637,3.83,1.405,13.907-3.637,15.521    c-6.848,2.015-17.531-1.814-19.343-8.669c-1.612-5.645,15.113-4.231,14.514-10.081c-0.806-6.048-11.49-4.432-16.532-7.858    c-2.019-1.412-1.812-4.838-3.829-6.047c-3.024-1.612-3.631,1.412-6.049-0.807c-1.611-1.412-1.206-3.83-3.023-4.839    C226.167,117.72,213.671,123.162,209.641,130.219L209.641,130.219z" fill="#4FBA6F"/></g></g></svg>