<?xml version="1.0" ?><svg height="512" id="svg4408" version="1.1" width="512" xmlns="http://www.w3.org/2000/svg" xmlns:cc="http://creativecommons.org/ns#" xmlns:dc="http://purl.org/dc/elements/1.1/" xmlns:inkscape="http://www.inkscape.org/namespaces/inkscape" xmlns:rdf="http://www.w3.org/1999/02/22-rdf-syntax-ns#" xmlns:sodipodi="http://sodipodi.sourceforge.net/DTD/sodipodi-0.dtd" xmlns:svg="http://www.w3.org/2000/svg"><defs id="defs4410"><clipPath clipPathUnits="userSpaceOnUse" id="clipPath3020"><path d="m -112.00571,200.87302 a 139.15862,139.15862 0 1 1 -278.31723,0 139.15862,139.15862 0 1 1 278.31723,0 z" id="path3022" style="fill:#3b3c3d;fill-opacity:1;stroke:none" transform="matrix(1.6939966,0,0,1.6934358,682.85838,-531.36455)"/></clipPath><clipPath clipPathUnits="userSpaceOnUse" id="clipPath3032"><path d="m -653.93234,-12.956072 a 260.2153,260.2153 0 1 1 -520.43056,0 260.2153,260.2153 0 1 1 520.43056,0 z" id="path3034" style="fill:#356ba0;fill-opacity:1;stroke:none" transform="matrix(0.92231317,0,0,0.92231317,1099.1304,-180.05045)"/></clipPath></defs><g id="layer1" transform="translate(0,448)"><g clip-path="url(#clipPath3032)" id="g3023" transform="translate(-2.0363276e-6,7.7104607e-6)"><g id="g11252" transform="matrix(-1.0184329,0,0,-1.0180957,518.13126,-386.65889)"><path d="m 48.569475,-431.84435 c -17.509136,0 -31.59375,14.11586 -31.59375,31.625 l 0,416.781246 c 0,17.50914 14.084614,31.59375 31.59375,31.59375 l 416.781255,0 c 17.50914,0 31.625,-14.08461 31.625,-31.59375 l 0,-416.781246 c 0,-17.50914 -14.11586,-31.625 -31.625,-31.625 l -416.781255,0 z" id="rect4416" style="fill:#ffffff;fill-opacity:1;stroke:none"/><path d="m 48.414933,-431.84435 c -17.509136,0 -31.59375,9.02333 -31.59375,20.21574 l 0,79.78426 479.999997,0 0,-79.78426 c 0,-11.19241 -14.11586,-20.21574 -31.625,-20.21574 l -416.781247,0 z" id="rect4416-0" style="fill:#e74c3c;fill-opacity:1;stroke:none"/><path d="m 466.29463,49.446345 c 17.5447,0 31.65793,-9.023322 31.65793,-20.215741 l 0,-79.784259 -480.975008,0 0,79.784259 c 0,11.192419 14.144533,20.215741 31.689238,20.215741 l 417.62784,0 z" id="rect4416-0-1" style="fill:#e74c3c;fill-opacity:1;stroke:none"/></g><rect height="150" id="rect3021" style="fill:#356ba0;fill-opacity:1;stroke:none" width="490" x="11" y="-267"/></g></g></svg>